<mxfile host="app.diagrams.net" modified="2023-09-02T21:34:19.604Z" agent="Mozilla/5.0 (Macintosh; Intel Mac OS X 10_15_7) AppleWebKit/605.1.15 (KHTML, like Gecko) Version/16.6 Safari/605.1.15" version="21.7.2" etag="LBA9Fp0cenYbVrihScsZ" type="github">
  <diagram name="PÃ¡gina-1" id="VTdRiBOR3PyI88IfE--b">
    <mxGraphModel>
      <root>
        <mxCell id="0" />
        <mxCell id="1" parent="0" />
      </root>
    </mxGraphModel>
  </diagram>
</mxfile>
